<svg xmlns="http://www.w3.org/2000/svg" viewBox="0 0 600 360" role="img" aria-label="JP Leilões">
  <rect width="600" height="360" rx="28" fill="#ffffff"/>
  <g transform="translate(70 28)">
    <path d="M35 0h95v145c0 66-40 100-102 100H0v-70h24c28 0 45-13 45-39V0z" fill="#0f1720"/>
    <path d="M150 0h132c72 0 113 35 113 100 0 60-38 95-104 95h-48v50h-93V0zm93 63v70h36c28 0 42-12 42-35 0-23-14-35-42-35h-36z" fill="#12b85a"/>
    <g transform="translate(235 52) rotate(38)">
      <rect x="-8" y="56" width="150" height="18" rx="9" fill="#ffffff"/>
      <rect x="-18" y="42" width="55" height="46" rx="6" fill="#ffffff"/>
      <rect x="-25" y="34" width="70" height="12" rx="6" fill="#ffffff"/>
      <rect x="-25" y="84" width="70" height="12" rx="6" fill="#ffffff"/>
    </g>
  </g>
  <text x="300" y="292" text-anchor="middle" font-family="Arial,Helvetica,sans-serif" font-size="62" font-weight="900" letter-spacing="1" fill="#0f1720">LEILÕES</text>
  <line x1="92" y1="326" x2="145" y2="326" stroke="#16b85d" stroke-width="5"/>
  <line x1="455" y1="326" x2="508" y2="326" stroke="#16b85d" stroke-width="5"/>
  <text x="300" y="333" text-anchor="middle" font-family="Arial,Helvetica,sans-serif" font-size="22" font-weight="600" letter-spacing="3" fill="#1f2937">SEU LEILÃO, SUA GESTÃO</text>
</svg>